<mxfile host="app.diagrams.net" modified="2022-11-09T10:58:44.575Z" agent="5.0 (X11; Linux x86_64) AppleWebKit/537.36 (KHTML, like Gecko) Chrome/107.0.0.0 Safari/537.36" etag="dI5h-cUr0oYMU9-BEIFn" version="20.5.3" type="github">
  <diagram name="Page-1" id="2a216829-ef6e-dabb-86c1-c78162f3ba2b">
    <mxGraphModel dx="1348" dy="712" grid="1" gridSize="10" guides="1" tooltips="1" connect="1" arrows="1" fold="1" page="1" pageScale="1" pageWidth="850" pageHeight="1100" background="none" math="0" shadow="0">
      <root>
        <mxCell id="0" />
        <mxCell id="1" parent="0" />
        <mxCell id="7a84cebc1def654-36" style="edgeStyle=orthogonalEdgeStyle;rounded=0;html=1;jettySize=auto;orthogonalLoop=1;exitX=1;exitY=0.5;exitDx=0;exitDy=0;entryX=0;entryY=0.5;entryDx=0;entryDy=0;" parent="1" source="25HGD5_yhvYqMgNDPXrx-1" target="25HGD5_yhvYqMgNDPXrx-3" edge="1">
          <mxGeometry relative="1" as="geometry">
            <mxPoint x="290" y="290" as="sourcePoint" />
            <mxPoint x="360" y="290" as="targetPoint" />
          </mxGeometry>
        </mxCell>
        <mxCell id="25HGD5_yhvYqMgNDPXrx-2" value="API Server" style="swimlane;whiteSpace=wrap;html=1;horizontal=1;" vertex="1" parent="1">
          <mxGeometry x="270" y="100" width="1210" height="1340" as="geometry" />
        </mxCell>
        <mxCell id="25HGD5_yhvYqMgNDPXrx-29" value="&lt;font style=&quot;font-size: 24px;&quot;&gt;Validation&lt;/font&gt;" style="rounded=0;whiteSpace=wrap;html=1;fontSize=9;verticalAlign=top;" vertex="1" parent="25HGD5_yhvYqMgNDPXrx-2">
          <mxGeometry x="500" y="46" width="390" height="270" as="geometry" />
        </mxCell>
        <mxCell id="25HGD5_yhvYqMgNDPXrx-32" style="edgeStyle=orthogonalEdgeStyle;rounded=0;orthogonalLoop=1;jettySize=auto;html=1;fontSize=12;" edge="1" parent="25HGD5_yhvYqMgNDPXrx-2" source="25HGD5_yhvYqMgNDPXrx-18" target="25HGD5_yhvYqMgNDPXrx-30">
          <mxGeometry relative="1" as="geometry" />
        </mxCell>
        <mxCell id="25HGD5_yhvYqMgNDPXrx-18" value="&lt;font style=&quot;font-size: 12px;&quot;&gt;validateUserExistsAndSilvur&lt;/font&gt;" style="shape=process;whiteSpace=wrap;html=1;backgroundOutline=1;fontSize=12;" vertex="1" parent="25HGD5_yhvYqMgNDPXrx-2">
          <mxGeometry x="520" y="100" width="200" height="70" as="geometry" />
        </mxCell>
        <mxCell id="25HGD5_yhvYqMgNDPXrx-31" style="edgeStyle=orthogonalEdgeStyle;rounded=0;orthogonalLoop=1;jettySize=auto;html=1;entryX=0;entryY=0.5;entryDx=0;entryDy=0;fontSize=12;" edge="1" parent="25HGD5_yhvYqMgNDPXrx-2" source="25HGD5_yhvYqMgNDPXrx-28" target="25HGD5_yhvYqMgNDPXrx-30">
          <mxGeometry relative="1" as="geometry" />
        </mxCell>
        <mxCell id="25HGD5_yhvYqMgNDPXrx-28" value="&lt;font style=&quot;font-size: 12px;&quot;&gt;validateUserHasDateOfBirth&lt;/font&gt;" style="shape=process;whiteSpace=wrap;html=1;backgroundOutline=1;fontSize=12;" vertex="1" parent="25HGD5_yhvYqMgNDPXrx-2">
          <mxGeometry x="520" y="210" width="200" height="70" as="geometry" />
        </mxCell>
        <mxCell id="25HGD5_yhvYqMgNDPXrx-30" value="Error" style="rhombus;whiteSpace=wrap;html=1;fontSize=9;" vertex="1" parent="25HGD5_yhvYqMgNDPXrx-2">
          <mxGeometry x="760" y="145" width="80" height="80" as="geometry" />
        </mxCell>
        <mxCell id="25HGD5_yhvYqMgNDPXrx-34" value="NO" style="shape=singleArrow;whiteSpace=wrap;html=1;arrowWidth=0.4;arrowSize=0.4;fontSize=9;" vertex="1" parent="25HGD5_yhvYqMgNDPXrx-2">
          <mxGeometry x="840" y="171.25" width="80" height="27.5" as="geometry" />
        </mxCell>
        <mxCell id="25HGD5_yhvYqMgNDPXrx-38" value="" style="group" vertex="1" connectable="0" parent="25HGD5_yhvYqMgNDPXrx-2">
          <mxGeometry x="50" y="121" width="375" height="120" as="geometry" />
        </mxCell>
        <mxCell id="25HGD5_yhvYqMgNDPXrx-3" value="Router" style="rounded=0;whiteSpace=wrap;html=1;align=left;horizontal=1;spacingLeft=20;fontSize=23;" vertex="1" parent="25HGD5_yhvYqMgNDPXrx-38">
          <mxGeometry width="375" height="120" as="geometry" />
        </mxCell>
        <mxCell id="25HGD5_yhvYqMgNDPXrx-14" value="" style="group" vertex="1" connectable="0" parent="25HGD5_yhvYqMgNDPXrx-38">
          <mxGeometry x="125" y="15" width="240" height="90" as="geometry" />
        </mxCell>
        <mxCell id="25HGD5_yhvYqMgNDPXrx-5" value="/healthcare" style="rounded=0;whiteSpace=wrap;html=1;" vertex="1" parent="25HGD5_yhvYqMgNDPXrx-14">
          <mxGeometry x="90" width="150" height="30" as="geometry" />
        </mxCell>
        <mxCell id="25HGD5_yhvYqMgNDPXrx-9" value="" style="group" vertex="1" connectable="0" parent="25HGD5_yhvYqMgNDPXrx-14">
          <mxGeometry width="240" height="90" as="geometry" />
        </mxCell>
        <mxCell id="25HGD5_yhvYqMgNDPXrx-6" value="Method: get" style="rounded=0;whiteSpace=wrap;html=1;" vertex="1" parent="25HGD5_yhvYqMgNDPXrx-9">
          <mxGeometry width="90" height="30" as="geometry" />
        </mxCell>
        <mxCell id="25HGD5_yhvYqMgNDPXrx-7" value="Controller: HealthcareFlagsConfiguration.controller.js" style="rounded=0;whiteSpace=wrap;html=1;" vertex="1" parent="25HGD5_yhvYqMgNDPXrx-9">
          <mxGeometry y="30" width="240" height="30" as="geometry" />
        </mxCell>
        <mxCell id="25HGD5_yhvYqMgNDPXrx-8" value="Action: show" style="rounded=0;whiteSpace=wrap;html=1;" vertex="1" parent="25HGD5_yhvYqMgNDPXrx-9">
          <mxGeometry y="60" width="240" height="30" as="geometry" />
        </mxCell>
        <mxCell id="25HGD5_yhvYqMgNDPXrx-39" value="" style="shape=flexArrow;endArrow=classic;html=1;rounded=0;fontSize=12;endWidth=20;endSize=7;horizontal=0;width=14;" edge="1" parent="25HGD5_yhvYqMgNDPXrx-2">
          <mxGeometry width="50" height="50" relative="1" as="geometry">
            <mxPoint x="800" y="150" as="sourcePoint" />
            <mxPoint x="800" y="80" as="targetPoint" />
          </mxGeometry>
        </mxCell>
        <mxCell id="25HGD5_yhvYqMgNDPXrx-41" value="Yes" style="edgeLabel;html=1;align=center;verticalAlign=middle;resizable=0;points=[];fontSize=12;horizontal=0;" vertex="1" connectable="0" parent="25HGD5_yhvYqMgNDPXrx-39">
          <mxGeometry x="0.4" relative="1" as="geometry">
            <mxPoint as="offset" />
          </mxGeometry>
        </mxCell>
        <mxCell id="25HGD5_yhvYqMgNDPXrx-42" value="" style="shape=sumEllipse;perimeter=ellipsePerimeter;whiteSpace=wrap;html=1;backgroundOutline=1;fontSize=12;" vertex="1" parent="25HGD5_yhvYqMgNDPXrx-2">
          <mxGeometry x="785" y="50" width="30" height="30" as="geometry" />
        </mxCell>
        <mxCell id="25HGD5_yhvYqMgNDPXrx-43" style="edgeStyle=orthogonalEdgeStyle;rounded=0;orthogonalLoop=1;jettySize=auto;html=1;entryX=0;entryY=0.5;entryDx=0;entryDy=0;fontSize=12;" edge="1" parent="25HGD5_yhvYqMgNDPXrx-2" source="25HGD5_yhvYqMgNDPXrx-3" target="25HGD5_yhvYqMgNDPXrx-29">
          <mxGeometry relative="1" as="geometry" />
        </mxCell>
        <mxCell id="25HGD5_yhvYqMgNDPXrx-45" value="UserAndSpouseHealthcareFlagsAndCost" style="shape=process;whiteSpace=wrap;html=1;backgroundOutline=1;fontSize=16;verticalAlign=top;size=0.02564102564102564;" vertex="1" parent="25HGD5_yhvYqMgNDPXrx-2">
          <mxGeometry x="20" y="360" width="1170" height="620" as="geometry" />
        </mxCell>
        <mxCell id="25HGD5_yhvYqMgNDPXrx-44" style="edgeStyle=orthogonalEdgeStyle;rounded=0;orthogonalLoop=1;jettySize=auto;html=1;fontSize=12;entryX=0.5;entryY=0;entryDx=0;entryDy=0;" edge="1" parent="25HGD5_yhvYqMgNDPXrx-2" source="25HGD5_yhvYqMgNDPXrx-34" target="25HGD5_yhvYqMgNDPXrx-45">
          <mxGeometry relative="1" as="geometry">
            <mxPoint x="1020" y="380" as="targetPoint" />
            <Array as="points">
              <mxPoint x="970" y="185" />
              <mxPoint x="970" y="330" />
              <mxPoint x="605" y="330" />
            </Array>
          </mxGeometry>
        </mxCell>
        <mxCell id="25HGD5_yhvYqMgNDPXrx-51" value="Get Users Health care flags and cost with&amp;nbsp;inflation" style="rounded=0;whiteSpace=wrap;html=1;fontSize=16;" vertex="1" parent="25HGD5_yhvYqMgNDPXrx-2">
          <mxGeometry x="760" y="393" width="200" height="70" as="geometry" />
        </mxCell>
        <mxCell id="25HGD5_yhvYqMgNDPXrx-52" value="Get Spouse Health care flags and cost with&amp;nbsp;inflation" style="rounded=0;whiteSpace=wrap;html=1;fontSize=16;" vertex="1" parent="25HGD5_yhvYqMgNDPXrx-2">
          <mxGeometry x="760" y="493" width="200" height="70" as="geometry" />
        </mxCell>
        <mxCell id="25HGD5_yhvYqMgNDPXrx-53" value="" style="group" vertex="1" connectable="0" parent="25HGD5_yhvYqMgNDPXrx-2">
          <mxGeometry x="51" y="377" width="240" height="210" as="geometry" />
        </mxCell>
        <mxCell id="25HGD5_yhvYqMgNDPXrx-46" value="Response Body" style="rounded=0;whiteSpace=wrap;html=1;fontSize=16;horizontal=1;align=center;verticalAlign=top;" vertex="1" parent="25HGD5_yhvYqMgNDPXrx-53">
          <mxGeometry width="240" height="210" as="geometry" />
        </mxCell>
        <mxCell id="25HGD5_yhvYqMgNDPXrx-49" value="" style="dashed=0;outlineConnect=0;html=1;align=center;labelPosition=center;verticalLabelPosition=bottom;verticalAlign=top;shape=mxgraph.weblogos.json_2;fontSize=16;" vertex="1" parent="25HGD5_yhvYqMgNDPXrx-53">
          <mxGeometry x="54.80000000000001" y="30" width="80.4" height="25.200000000000003" as="geometry" />
        </mxCell>
        <mxCell id="25HGD5_yhvYqMgNDPXrx-50" value="&lt;div&gt;{&lt;/div&gt;&lt;div&gt;&lt;span style=&quot;&quot;&gt;&lt;/span&gt;&amp;nbsp; user: &amp;lt;userData&amp;gt;,&lt;/div&gt;&lt;div&gt;&lt;span style=&quot;&quot;&gt;&lt;/span&gt;&amp;nbsp; spouse: &amp;lt;spouseData&amp;gt; || NULL&lt;/div&gt;&lt;div&gt;}&lt;/div&gt;" style="rounded=1;whiteSpace=wrap;html=1;fontSize=16;align=left;" vertex="1" parent="25HGD5_yhvYqMgNDPXrx-53">
          <mxGeometry x="5" y="70" width="230" height="130" as="geometry" />
        </mxCell>
        <mxCell id="25HGD5_yhvYqMgNDPXrx-54" style="edgeStyle=orthogonalEdgeStyle;rounded=0;orthogonalLoop=1;jettySize=auto;html=1;entryX=0;entryY=0.5;entryDx=0;entryDy=0;fontSize=16;exitX=1;exitY=0.5;exitDx=0;exitDy=0;" edge="1" parent="25HGD5_yhvYqMgNDPXrx-2" source="25HGD5_yhvYqMgNDPXrx-50" target="25HGD5_yhvYqMgNDPXrx-51">
          <mxGeometry relative="1" as="geometry">
            <mxPoint x="286" y="475" as="sourcePoint" />
          </mxGeometry>
        </mxCell>
        <mxCell id="25HGD5_yhvYqMgNDPXrx-55" value="Yes" style="edgeStyle=orthogonalEdgeStyle;rounded=0;orthogonalLoop=1;jettySize=auto;html=1;entryX=0;entryY=0.5;entryDx=0;entryDy=0;fontSize=16;startArrow=none;" edge="1" parent="25HGD5_yhvYqMgNDPXrx-2" source="25HGD5_yhvYqMgNDPXrx-56" target="25HGD5_yhvYqMgNDPXrx-52">
          <mxGeometry relative="1" as="geometry" />
        </mxCell>
        <mxCell id="25HGD5_yhvYqMgNDPXrx-59" value="No" style="edgeStyle=orthogonalEdgeStyle;rounded=0;orthogonalLoop=1;jettySize=auto;html=1;exitX=0.5;exitY=0;exitDx=0;exitDy=0;entryX=0;entryY=0.5;entryDx=0;entryDy=0;fontSize=16;" edge="1" parent="25HGD5_yhvYqMgNDPXrx-2" source="25HGD5_yhvYqMgNDPXrx-56" target="25HGD5_yhvYqMgNDPXrx-58">
          <mxGeometry relative="1" as="geometry">
            <Array as="points">
              <mxPoint x="594" y="463" />
              <mxPoint x="690" y="463" />
            </Array>
          </mxGeometry>
        </mxCell>
        <mxCell id="25HGD5_yhvYqMgNDPXrx-56" value="If Spouse Present" style="rhombus;whiteSpace=wrap;html=1;fontSize=16;" vertex="1" parent="25HGD5_yhvYqMgNDPXrx-2">
          <mxGeometry x="539" y="483" width="110" height="80" as="geometry" />
        </mxCell>
        <mxCell id="25HGD5_yhvYqMgNDPXrx-57" value="" style="edgeStyle=orthogonalEdgeStyle;rounded=0;orthogonalLoop=1;jettySize=auto;html=1;entryX=0;entryY=0.5;entryDx=0;entryDy=0;fontSize=16;endArrow=none;exitX=1;exitY=0.5;exitDx=0;exitDy=0;" edge="1" parent="25HGD5_yhvYqMgNDPXrx-2" source="25HGD5_yhvYqMgNDPXrx-50" target="25HGD5_yhvYqMgNDPXrx-56">
          <mxGeometry relative="1" as="geometry">
            <mxPoint x="286" y="475" as="sourcePoint" />
            <mxPoint x="1030" y="623" as="targetPoint" />
          </mxGeometry>
        </mxCell>
        <mxCell id="25HGD5_yhvYqMgNDPXrx-58" value="NULL" style="rounded=0;whiteSpace=wrap;html=1;fontSize=16;" vertex="1" parent="25HGD5_yhvYqMgNDPXrx-2">
          <mxGeometry x="690" y="443" width="50" height="40" as="geometry" />
        </mxCell>
        <mxCell id="25HGD5_yhvYqMgNDPXrx-60" value="Healthcare Calculator Service" style="rounded=1;whiteSpace=wrap;html=1;fontSize=16;horizontal=1;verticalAlign=top;" vertex="1" parent="25HGD5_yhvYqMgNDPXrx-2">
          <mxGeometry x="210" y="1040" width="820" height="250" as="geometry" />
        </mxCell>
        <mxCell id="25HGD5_yhvYqMgNDPXrx-61" value="costByGenderZipAndTobaccoUsage" style="shape=process;whiteSpace=wrap;html=1;backgroundOutline=1;fontSize=16;size=0.046153846153846156;" vertex="1" parent="25HGD5_yhvYqMgNDPXrx-2">
          <mxGeometry x="230" y="1127.5" width="325" height="85" as="geometry" />
        </mxCell>
        <mxCell id="25HGD5_yhvYqMgNDPXrx-62" value="CostByState" style="shape=process;whiteSpace=wrap;html=1;backgroundOutline=1;fontSize=16;size=0.05128205128205128;" vertex="1" parent="25HGD5_yhvYqMgNDPXrx-2">
          <mxGeometry x="785" y="1127.5" width="195" height="75" as="geometry" />
        </mxCell>
        <mxCell id="25HGD5_yhvYqMgNDPXrx-1" value="Health care Request" style="ellipse;whiteSpace=wrap;html=1;" vertex="1" parent="1">
          <mxGeometry x="20" y="231" width="190" height="100" as="geometry" />
        </mxCell>
        <mxCell id="25HGD5_yhvYqMgNDPXrx-47" style="edgeStyle=orthogonalEdgeStyle;rounded=0;orthogonalLoop=1;jettySize=auto;html=1;fontSize=16;entryX=0.5;entryY=1;entryDx=0;entryDy=0;" edge="1" parent="1" source="25HGD5_yhvYqMgNDPXrx-46" target="25HGD5_yhvYqMgNDPXrx-1">
          <mxGeometry relative="1" as="geometry">
            <mxPoint x="110" y="460" as="targetPoint" />
          </mxGeometry>
        </mxCell>
        <mxCell id="25HGD5_yhvYqMgNDPXrx-63" value="" style="shape=process;whiteSpace=wrap;html=1;backgroundOutline=1;fontSize=16;size=0.018691588785046728;" vertex="1" parent="1">
          <mxGeometry x="350" y="740" width="1070" height="310" as="geometry" />
        </mxCell>
        <mxCell id="25HGD5_yhvYqMgNDPXrx-82" style="edgeStyle=orthogonalEdgeStyle;rounded=0;orthogonalLoop=1;jettySize=auto;html=1;entryX=0;entryY=0.5;entryDx=0;entryDy=0;fontSize=13;" edge="1" parent="1" source="25HGD5_yhvYqMgNDPXrx-64" target="25HGD5_yhvYqMgNDPXrx-80">
          <mxGeometry relative="1" as="geometry">
            <Array as="points">
              <mxPoint x="790" y="800" />
              <mxPoint x="790" y="890" />
            </Array>
          </mxGeometry>
        </mxCell>
        <mxCell id="25HGD5_yhvYqMgNDPXrx-64" value="Get Healthcare Data by Zip Code and Tobacco" style="shape=step;perimeter=stepPerimeter;whiteSpace=wrap;html=1;fixedSize=1;fontSize=13;align=center;" vertex="1" parent="1">
          <mxGeometry x="600" y="760" width="120" height="80" as="geometry" />
        </mxCell>
        <mxCell id="25HGD5_yhvYqMgNDPXrx-68" value="If users Postal code Present" style="rhombus;whiteSpace=wrap;html=1;fontSize=13;" vertex="1" parent="1">
          <mxGeometry x="410" y="840" width="80" height="80" as="geometry" />
        </mxCell>
        <mxCell id="25HGD5_yhvYqMgNDPXrx-81" style="edgeStyle=orthogonalEdgeStyle;rounded=0;orthogonalLoop=1;jettySize=auto;html=1;entryX=0;entryY=0.5;entryDx=0;entryDy=0;fontSize=13;" edge="1" parent="1" source="25HGD5_yhvYqMgNDPXrx-71" target="25HGD5_yhvYqMgNDPXrx-80">
          <mxGeometry relative="1" as="geometry" />
        </mxCell>
        <mxCell id="25HGD5_yhvYqMgNDPXrx-71" value="Get Healthcare Data by State Province" style="shape=step;perimeter=stepPerimeter;whiteSpace=wrap;html=1;fixedSize=1;fontSize=13;align=center;" vertex="1" parent="1">
          <mxGeometry x="600" y="930" width="120" height="80" as="geometry" />
        </mxCell>
        <mxCell id="25HGD5_yhvYqMgNDPXrx-78" style="edgeStyle=orthogonalEdgeStyle;rounded=0;orthogonalLoop=1;jettySize=auto;html=1;exitX=0;exitY=0.5;exitDx=0;exitDy=0;entryX=0;entryY=0.5;entryDx=0;entryDy=0;fontSize=13;" edge="1" parent="1" source="25HGD5_yhvYqMgNDPXrx-61" target="25HGD5_yhvYqMgNDPXrx-64">
          <mxGeometry relative="1" as="geometry">
            <Array as="points">
              <mxPoint x="390" y="1270" />
              <mxPoint x="390" y="800" />
            </Array>
          </mxGeometry>
        </mxCell>
        <mxCell id="25HGD5_yhvYqMgNDPXrx-79" style="edgeStyle=orthogonalEdgeStyle;rounded=0;orthogonalLoop=1;jettySize=auto;html=1;entryX=0;entryY=0.5;entryDx=0;entryDy=0;fontSize=13;" edge="1" parent="1" source="25HGD5_yhvYqMgNDPXrx-62" target="25HGD5_yhvYqMgNDPXrx-71">
          <mxGeometry relative="1" as="geometry">
            <Array as="points">
              <mxPoint x="1153" y="1200" />
              <mxPoint x="450" y="1200" />
              <mxPoint x="450" y="970" />
            </Array>
          </mxGeometry>
        </mxCell>
        <mxCell id="25HGD5_yhvYqMgNDPXrx-80" value="&lt;div&gt;HealthcareFlagsCalculator&lt;/div&gt;&lt;div&gt;buildResults&lt;/div&gt;" style="shape=step;perimeter=stepPerimeter;whiteSpace=wrap;html=1;fixedSize=1;fontSize=13;" vertex="1" parent="1">
          <mxGeometry x="860" y="850" width="190" height="80" as="geometry" />
        </mxCell>
        <mxCell id="25HGD5_yhvYqMgNDPXrx-85" style="edgeStyle=orthogonalEdgeStyle;rounded=0;orthogonalLoop=1;jettySize=auto;html=1;entryX=0.5;entryY=0;entryDx=0;entryDy=0;fontSize=13;" edge="1" parent="1" source="25HGD5_yhvYqMgNDPXrx-51" target="25HGD5_yhvYqMgNDPXrx-63">
          <mxGeometry relative="1" as="geometry">
            <Array as="points">
              <mxPoint x="1290" y="528" />
              <mxPoint x="1290" y="700" />
              <mxPoint x="885" y="700" />
            </Array>
          </mxGeometry>
        </mxCell>
        <mxCell id="25HGD5_yhvYqMgNDPXrx-86" style="edgeStyle=orthogonalEdgeStyle;rounded=0;orthogonalLoop=1;jettySize=auto;html=1;exitX=1;exitY=0.5;exitDx=0;exitDy=0;entryX=0.5;entryY=0;entryDx=0;entryDy=0;fontSize=13;" edge="1" parent="1" source="25HGD5_yhvYqMgNDPXrx-52" target="25HGD5_yhvYqMgNDPXrx-63">
          <mxGeometry relative="1" as="geometry" />
        </mxCell>
        <mxCell id="25HGD5_yhvYqMgNDPXrx-87" value="Build Results based on boolean flag inflated and&amp;nbsp;ltcCostShouldBeObtained" style="shape=callout;whiteSpace=wrap;html=1;perimeter=calloutPerimeter;fontSize=13;position2=0.57;" vertex="1" parent="1">
          <mxGeometry x="810" y="770" width="200" height="80" as="geometry" />
        </mxCell>
        <mxCell id="25HGD5_yhvYqMgNDPXrx-88" value="&lt;div&gt;&lt;b&gt;Inflated cost calculation Logic:&amp;nbsp;&lt;/b&gt;&lt;/div&gt;&lt;div&gt;&lt;br&gt;&lt;/div&gt;&lt;div&gt;this.inflated ? (costAnnuallyCalculated * (Math.pow(INFLATION_FACTOR, years))) : costAnnuallyCalculated;&lt;/div&gt;" style="shape=callout;whiteSpace=wrap;html=1;perimeter=calloutPerimeter;fontSize=13;position2=0;size=30;position=0.1;base=70;" vertex="1" parent="1">
          <mxGeometry x="1030" y="750" width="340" height="110" as="geometry" />
        </mxCell>
        <mxCell id="25HGD5_yhvYqMgNDPXrx-72" value="No" style="edgeStyle=orthogonalEdgeStyle;rounded=0;orthogonalLoop=1;jettySize=auto;html=1;entryX=0;entryY=0.5;entryDx=0;entryDy=0;fontSize=13;" edge="1" parent="1" source="25HGD5_yhvYqMgNDPXrx-68" target="25HGD5_yhvYqMgNDPXrx-71">
          <mxGeometry relative="1" as="geometry">
            <Array as="points">
              <mxPoint x="450" y="970" />
            </Array>
          </mxGeometry>
        </mxCell>
        <mxCell id="25HGD5_yhvYqMgNDPXrx-69" value="Yes" style="edgeStyle=orthogonalEdgeStyle;rounded=0;orthogonalLoop=1;jettySize=auto;html=1;fontSize=13;" edge="1" parent="1" source="25HGD5_yhvYqMgNDPXrx-68" target="25HGD5_yhvYqMgNDPXrx-64">
          <mxGeometry relative="1" as="geometry">
            <Array as="points">
              <mxPoint x="450" y="800" />
            </Array>
          </mxGeometry>
        </mxCell>
      </root>
    </mxGraphModel>
  </diagram>
</mxfile>
